<?xml version="1.0" encoding="iso-8859-1"?>
<!-- Generator: Adobe Illustrator 18.1.1, SVG Export Plug-In . SVG Version: 6.00 Build 0)  -->
<svg version="1.1" id="Capa_1" xmlns="http://www.w3.org/2000/svg" xmlns:xlink="http://www.w3.org/1999/xlink" x="0px" y="0px"
	 viewBox="0 0 55.264 55.264" style="enable-background:new 0 0 55.264 55.264;" xml:space="preserve">
<g>
	<path style="fill:#010002;" d="M30.264,2.632c-1.657,0-3,1.343-3,3s1.343,3,3,3c10.477,0,19,8.523,19,19s-8.523,19-19,19
		c-8.317,0-15.469-5.463-18.009-12.985c0.035,0.038,0.079,0.071,0.113,0.109c2.047,2.349,3.934,1.574,4.087-1.735
		c0.031-0.672,0.06-1.37,0.083-2.078c0.107-3.312-0.145-8.659-0.723-11.888c-0.579-3.228-3.373-4.094-5.802-1.841
		c-1.624,1.506-3.387,3.246-4.745,4.855c-1.401,1.66-2.959,3.778-4.303,5.688c-1.907,2.71-0.887,4.472,2.167,3.857
		c0.72-0.144,1.502-0.169,2.3-0.103c1.444,12.403,12.107,22.121,24.832,22.121c13.785,0,25-11.215,25-25S44.05,2.632,30.264,2.632z"
		/>
</g>
<g>
</g>
<g>
</g>
<g>
</g>
<g>
</g>
<g>
</g>
<g>
</g>
<g>
</g>
<g>
</g>
<g>
</g>
<g>
</g>
<g>
</g>
<g>
</g>
<g>
</g>
<g>
</g>
<g>
</g>
</svg>
